<svg xmlns="http://www.w3.org/2000/svg" viewBox="0 0 129.53 129.53"><defs><style>.cls-1{fill:#b9c4e1;}.cls-2{fill:#fff;}</style></defs><g id="OBJECTS"><circle class="cls-1" cx="245.92" cy="219.46" r="64.76" transform="translate(-204.12 255.4) rotate(-77.08)"/><ellipse class="cls-2" cx="64.76" cy="56.48" rx="25.19" ry="34.89"/><path class="cls-2" d="M245.53,243.84c-21.09,0-39.94,5.06-52.48,13a64.72,64.72,0,0,0,105.5.36C286,249,266.92,243.84,245.53,243.84Z" transform="translate(-181.16 -154.7)"/><rect class="cls-2" x="51.3" y="64.76" width="26.92" height="41.13" rx="9.62"/><path class="cls-2" d="M224.71,213.16c.75,5.6-.49,10.45-2.78,10.84s-4.75-3.83-5.5-9.43.49-10.44,2.77-10.83S224,207.57,224.71,213.16Z" transform="translate(-181.16 -154.7)"/><path class="cls-2" d="M267.14,213.16c-.76,5.6.49,10.45,2.77,10.84s4.75-3.83,5.51-9.43-.49-10.44-2.78-10.83S267.89,207.57,267.14,213.16Z" transform="translate(-181.16 -154.7)"/><path class="cls-2" d="M221.61,209.81q-1.28-8.38-2.54-16.76c-.31-2-.61-4.16.13-6.08s2.92-3.43,4.84-2.72c-.77-3.88,3.53-6.75,7.27-8a43.51,43.51,0,0,1,19.59-2.41,28.27,28.27,0,0,1,17.45,8.7,15.45,15.45,0,0,1,3.29,5.33c1.29,3.83.47,8-.36,12l-2,9.43a4.24,4.24,0,0,1-.81,2c-.78.87-2.1.93-3.27.94l-37.48.08c-2.34,0-5.41-.58-5.72-2.9" transform="translate(-181.16 -154.7)"/></g></svg>