<svg xmlns="http://www.w3.org/2000/svg" viewBox="0 0 122.76 122.76"><defs><style>.cls-1{fill:#067ac5;}</style></defs><g id="OBJECTS"><path class="cls-1" d="M237,268.19a61.46,61.46,0,0,1-45.58-59.3c0-.3,0-.59,0-.89a21.88,21.88,0,0,1,22-21.27h17.25V165.49a2.82,2.82,0,0,1,5.63,0v26.86H213.37a16.25,16.25,0,0,0-16.32,15.83c0,.23,0,.47,0,.71a55.38,55.38,0,0,0,4.39,21.68c.19.46.39.91.6,1.37a56,56,0,0,0,28,27.85,24.94,24.94,0,0,0,6.93,8.4Z" transform="translate(-191.41 -147.51)"/><path class="cls-1" d="M312.1,224.67a61.47,61.47,0,0,1-59.31,45.6h-.89a21.88,21.88,0,0,1-21.28-21.95V231.05H209.39a2.78,2.78,0,0,1-2.68-2,2.54,2.54,0,0,1-.14-.83,2.82,2.82,0,0,1,2.82-2.82h26.86v22.89a16.25,16.25,0,0,0,15.82,16.32h.72a55.83,55.83,0,0,0,50.91-33,23.74,23.74,0,0,0,4-2.55A24.06,24.06,0,0,0,312.1,224.67Z" transform="translate(-191.41 -147.51)"/><path class="cls-1" d="M264.06,241.83H250.31a8.48,8.48,0,0,1-8.46-8.47V220.73H220.76V207a8.48,8.48,0,0,1,8.46-8.47h12.63V177.43h13.74a8.48,8.48,0,0,1,8.47,8.47v12.62h21.09v13.75a8.47,8.47,0,0,1-8.47,8.46H264.06Zm-37.67-26.72h21.09v18.25a2.84,2.84,0,0,0,2.83,2.84h8.12V215.11h18.25a2.84,2.84,0,0,0,2.84-2.84v-8.12H258.43V185.9a2.84,2.84,0,0,0-2.84-2.84h-8.11v21.09H229.22a2.84,2.84,0,0,0-2.83,2.84Z" transform="translate(-191.41 -147.51)"/><path class="cls-1" d="M314.17,208.89v.25c0,.21,0,.42,0,.63a21.86,21.86,0,0,1-22,21.28H275v21.23a2.82,2.82,0,0,1-5.63,0V225.42h22.89a16.25,16.25,0,0,0,16.32-15.82c0-.13,0-.27,0-.41v-.3a55.71,55.71,0,0,0-33-50.9,25.2,25.2,0,0,0-6.92-8.41A61.47,61.47,0,0,1,314.17,208.89Z" transform="translate(-191.41 -147.51)"/><path class="cls-1" d="M299,189.54a2.81,2.81,0,0,1-2.81,2.81H269.32V169.47a16.25,16.25,0,0,0-15.82-16.32h-.71a55.83,55.83,0,0,0-50.91,33,24.47,24.47,0,0,0-4,2.55,25,25,0,0,0-4.39,4.39,61.47,61.47,0,0,1,59.31-45.6h.9A21.88,21.88,0,0,1,275,169.47v17.26h21.23a2.8,2.8,0,0,1,2.47,1.47A2.72,2.72,0,0,1,299,189.54Z" transform="translate(-191.41 -147.51)"/></g></svg>