<svg xmlns="http://www.w3.org/2000/svg" viewBox="0 0 143.38 161.41"><defs><style>.cls-1{fill:#067ac5;}.cls-2{fill:#013349;}</style></defs><g id="OBJECTS"><path class="cls-1" d="M237,268.19a61.46,61.46,0,0,1-45.58-59.3c0-.3,0-.59,0-.89a21.88,21.88,0,0,1,22-21.27h17.25V165.49a2.82,2.82,0,0,1,5.63,0v26.86H213.37a16.25,16.25,0,0,0-16.32,15.83c0,.23,0,.47,0,.71a55.38,55.38,0,0,0,4.39,21.68c.19.46.39.91.6,1.37a56,56,0,0,0,28,27.85,24.94,24.94,0,0,0,6.93,8.4Z" transform="translate(-181.96 -147.51)"/><path class="cls-1" d="M312.1,224.67a61.47,61.47,0,0,1-59.31,45.6h-.89a21.88,21.88,0,0,1-21.28-21.95V231.05H209.39a2.78,2.78,0,0,1-2.68-2,2.54,2.54,0,0,1-.14-.83,2.82,2.82,0,0,1,2.82-2.82h26.86v22.89a16.25,16.25,0,0,0,15.82,16.32h.72a55.83,55.83,0,0,0,50.91-33,23.74,23.74,0,0,0,4-2.55A24.06,24.06,0,0,0,312.1,224.67Z" transform="translate(-181.96 -147.51)"/><path class="cls-1" d="M264.06,241.83H250.31a8.48,8.48,0,0,1-8.46-8.47V220.73H220.76V207a8.48,8.48,0,0,1,8.46-8.47h12.63V177.43h13.74a8.48,8.48,0,0,1,8.47,8.47v12.62h21.09v13.75a8.47,8.47,0,0,1-8.47,8.46H264.06Zm-37.67-26.72h21.09v18.25a2.84,2.84,0,0,0,2.83,2.84h8.12V215.11h18.25a2.84,2.84,0,0,0,2.84-2.84v-8.12H258.43V185.9a2.84,2.84,0,0,0-2.84-2.84h-8.11v21.09H229.22a2.84,2.84,0,0,0-2.83,2.84Z" transform="translate(-181.96 -147.51)"/><path class="cls-1" d="M314.17,208.89v.25c0,.21,0,.42,0,.63a21.86,21.86,0,0,1-22,21.28H275v21.23a2.82,2.82,0,0,1-5.63,0V225.42h22.89a16.25,16.25,0,0,0,16.32-15.82c0-.13,0-.27,0-.41v-.3a55.71,55.71,0,0,0-33-50.9,25.2,25.2,0,0,0-6.92-8.41A61.47,61.47,0,0,1,314.17,208.89Z" transform="translate(-181.96 -147.51)"/><path class="cls-1" d="M299,189.54a2.81,2.81,0,0,1-2.81,2.81H269.32V169.47a16.25,16.25,0,0,0-15.82-16.32h-.71a55.83,55.83,0,0,0-50.91,33,24.47,24.47,0,0,0-4,2.55,25,25,0,0,0-4.39,4.39,61.47,61.47,0,0,1,59.31-45.6h.9A21.88,21.88,0,0,1,275,169.47v17.26h21.23a2.8,2.8,0,0,1,2.47,1.47A2.72,2.72,0,0,1,299,189.54Z" transform="translate(-181.96 -147.51)"/><path class="cls-1" d="M201.94,299.74c-.11-2.79-.21-6.11-.2-9.48h-.09c-.73,2.94-1.7,6.21-2.57,8.93l-2.82,9h-4l-2.48-8.9c-.74-2.71-1.51-6-2.08-9h-.07c-.11,3.13-.24,6.68-.38,9.55l-.43,8.73H182l1.48-23h6.94l2.24,7.69c.73,2.64,1.44,5.53,1.95,8.23h.11c.63-2.67,1.41-5.7,2.19-8.27l2.45-7.65h6.8l1.24,23H202.3Z" transform="translate(-181.96 -147.51)"/><path class="cls-1" d="M215.3,301.86c.15,2.15,2.28,3.18,4.71,3.18a14,14,0,0,0,4.6-.71l.7,3.51a16.14,16.14,0,0,1-6.06,1.06c-5.66,0-8.91-3.3-8.91-8.51,0-4.24,2.65-8.94,8.42-8.94,5.42,0,7.47,4.21,7.47,8.35a10.14,10.14,0,0,1-.19,2.06Zm6.1-3.56c0-1.26-.55-3.39-2.92-3.39-2.19,0-3.08,2-3.23,3.39Z" transform="translate(-181.96 -147.51)"/><path class="cls-1" d="M245.51,284.3v19.25c0,1.9.06,3.87.14,5H241l-.22-2.45h-.07a5.84,5.84,0,0,1-5.24,2.83c-3.94,0-7.13-3.39-7.13-8.59,0-5.61,3.5-8.88,7.48-8.88a5.06,5.06,0,0,1,4.39,1.89h.07v-9Zm-5.2,14.62a5,5,0,0,0-.07-.94,3.07,3.07,0,0,0-3-2.54c-2.38,0-3.59,2.11-3.59,4.74,0,2.82,1.39,4.59,3.55,4.59a3.07,3.07,0,0,0,3-2.48,4.93,4.93,0,0,0,.11-1.18Z" transform="translate(-181.96 -147.51)"/><path class="cls-1" d="M255,287.19a2.57,2.57,0,0,1-2.79,2.59,2.61,2.61,0,1,1,2.79-2.59Zm-5.35,21.35V291.83h5.21v16.71Z" transform="translate(-181.96 -147.51)"/><path class="cls-2" d="M259.73,285.84a21,21,0,0,1,4.64-.49c2.87,0,4.75.62,6,1.9a5.11,5.11,0,0,1,1.42,3.79,5.58,5.58,0,0,1-4,5.13v.1a5.94,5.94,0,0,1,4.86,5.85,6.11,6.11,0,0,1-1.7,4.4c-1.52,1.57-4,2.2-7.27,2.2-1.75,0-3.1-.13-4-.2Zm1.63,9.81h3.36c3.33,0,5.42-2,5.42-4.52,0-3.24-2.45-4.42-5.86-4.42a12.46,12.46,0,0,0-2.92.25Zm0,11.52a14.89,14.89,0,0,0,2.81.19c3.54,0,6.84-1.27,6.84-5.19,0-3.63-3.11-5.19-6.75-5.2h-2.9Z" transform="translate(-181.96 -147.51)"/><path class="cls-2" d="M291.06,300.19c0,6.12-4.2,8.73-7.85,8.73-4.24,0-7.51-3.3-7.51-8.45,0-5.6,3.68-8.7,7.75-8.7C288,291.77,291.06,295.17,291.06,300.19Zm-13.72.21c0,4.1,2.61,7.17,6,7.17s6.1-3.1,6.1-7.3c0-3-1.69-7.15-6-7.15S277.34,296.86,277.34,300.4Z" transform="translate(-181.96 -147.51)"/><path class="cls-2" d="M309.22,300.19c0,6.12-4.19,8.73-7.84,8.73-4.25,0-7.52-3.3-7.52-8.45,0-5.6,3.68-8.7,7.76-8.7C306.14,291.77,309.22,295.17,309.22,300.19Zm-13.72.21c0,4.1,2.61,7.17,6,7.17s6.09-3.1,6.09-7.3c0-3-1.69-7.15-6-7.15S295.5,296.86,295.5,300.4Z" transform="translate(-181.96 -147.51)"/><path class="cls-2" d="M315,300h.07c.41-.5,1.07-1.26,1.59-1.8l5.78-6.09h2l-6.61,6.8,7.54,9.59h-2l-6.7-8.59L315,301.7v6.84h-1.62V284.3H315Z" transform="translate(-181.96 -147.51)"/></g></svg>